{"title":"A.I. Artificial Intelligence (2001) DVD Rip","uid":6352185,"size":944517166,"categoryP":"video","categoryS":"movies","magnet":"?xt=urn:btih:9aa6f2cc8def2ce5309aa3b217efe02f8c8b335f&amp;dn=A.I.+Artificial+Intelligence+%282001%29+DVD+Rip&amp;tr=udp%3A%2F%2Ftracker.openbittorrent.com%3A80&amp;tr=udp%3A%2F%2Fopen.demonii.com%3A1337&amp;tr=udp%3A%2F%2Ftracker.coppersurfer.tk%3A6969&amp;tr=udp%3A%2F%2Fexodus.desync.com%3A6969","seeders":0,"leechers":1,"uploader":"RetroidPrime91","files":2,"time":1304037882,"description":"A highly advanced robotic boy longs to become \\\\\\\\\\\\\\&quot;real\\\\\\\\\\\\\\&quot; so that he can regain the love of his human mother.\n\nFormat : AVI\nFormat/Info : Audio Video Interleave\nFile size : 901 MiB\nDuration : 2h 25mn\nOverall bit rate : 864 Kbps\nWriting application : VirtualDubMod 1.5.4.1 (build 2178/release)\nWriting library : VirtualDubMod build 2178/release\n\nVideo\n\nFormat : MPEG-4 Visual\nFormat profile : Advanced Simple@L5\nFormat settings, BVOP : 1\nFormat settings, QPel : No\nFormat settings, GMC : No warppoints\nFormat settings, Matrix : Custom\nCodec ID : XVID\nCodec ID/Hint : XviD\nDuration : 2h 25mn\nBit rate : 729 Kbps\nWidth : 608 pixels\nHeight : 352 pixels\nDisplay aspect ratio : 16:9\nFrame rate : 23.976 fps\nColor space : YUV\nChroma subsampling : 4:2:0\nBit depth : 8 bits\nScan type : Progressive\nCompression mode : Lossy\nBits/(Pixel*Frame) : 0.142\nStream size : 760 MiB (84%)\nWriting library : XviD 1.2.1 (UTC 2008-12-04)\n\nAudio\n\nFormat : MPEG Audio\nFormat version : Version 1\nFormat profile : Layer 3\nMode : Joint stereo\nMode extension : MS Stereo\nCodec ID : 55\nCodec ID/Hint : MP3\nDuration : 2h 25mn\nBit rate mode : Constant\nBit rate : 128 Kbps\nChannel(s) : 2 channels\nSampling rate : 48.0 KHz\nCompression mode : Lossy\nStream size : 134 MiB (15%)\nAlignment : Aligned on interleaves\nInterleave, duration : 83 ms (2.00 video frames)\nInterleave, preload duration : 504 ms\nWriting library : LAME3.98r\nEncoding settings : -m j -V 4 -q 2 -lowpass 17 -b 128\nLanguage : English\n\nPlease seed &amp; thank you for downloading","torrent":{"xt":"urn:btih:9aa6f2cc8def2ce5309aa3b217efe02f8c8b335f","amp;dn":"A.I.+Artificial+Intelligence+%282001%29+DVD+Rip","amp;tr":["udp%3A%2F%2Ftracker.openbittorrent.com%3A80","udp%3A%2F%2Fopen.demonii.com%3A1337","udp%3A%2F%2Ftracker.coppersurfer.tk%3A6969","udp%3A%2F%2Fexodus.desync.com%3A6969"],"infoHash":"9aa6f2cc8def2ce5309aa3b217efe02f8c8b335f","infoHashBuffer":{"type":"Buffer","data":[154,166,242,204,141,239,44,229,48,154,163,178,23,239,224,47,140,139,51,95]},"announce":[],"urlList":[]}}